<svg xmlns="http://www.w3.org/2000/svg" xmlns:xlink="http://www.w3.org/1999/xlink" preserveAspectRatio="xMidYMid" width="110" height="110" viewBox="0 0 110 110">
  <path d="M55.000,110.000 C24.624,110.000 0.000,85.376 0.000,55.000 C0.000,24.624 24.624,0.000 55.000,0.000 C85.376,0.000 110.000,24.624 110.000,55.000 C110.000,85.376 85.376,110.000 55.000,110.000 ZM55.000,3.406 C26.506,3.406 3.406,26.506 3.406,55.000 C3.406,83.494 26.506,106.594 55.000,106.594 C83.494,106.594 106.594,83.494 106.594,55.000 C106.594,26.506 83.494,3.406 55.000,3.406 ZM46.602,76.418 C46.602,76.418 44.067,78.986 44.067,78.986 C44.067,78.986 41.532,76.418 41.532,76.418 C41.532,76.418 41.532,76.418 41.532,76.418 C41.532,76.418 27.003,61.697 27.003,61.697 C27.003,61.697 29.538,59.129 29.538,59.129 C29.538,59.129 44.067,73.850 44.067,73.850 C44.067,73.850 79.462,37.988 79.462,37.988 C79.462,37.988 81.997,40.556 81.997,40.556 C81.997,40.556 46.602,76.418 46.602,76.418 C46.602,76.418 46.602,76.418 46.602,76.418 Z" id="path-1" class="cls-2" fill-rule="evenodd"/>
</svg>
