<svg xmlns="http://www.w3.org/2000/svg" xmlns:xlink="http://www.w3.org/1999/xlink" preserveAspectRatio="xMidYMid" width="16" height="16" viewBox="0 0 16 16">
  <path d="M16.000,9.000 C16.000,9.000 9.000,9.000 9.000,9.000 C9.000,9.000 9.000,16.000 9.000,16.000 C9.000,16.000 7.000,16.000 7.000,16.000 C7.000,16.000 7.000,9.000 7.000,9.000 C7.000,9.000 -0.000,9.000 -0.000,9.000 C-0.000,9.000 -0.000,7.000 -0.000,7.000 C-0.000,7.000 7.000,7.000 7.000,7.000 C7.000,7.000 7.000,-0.000 7.000,-0.000 C7.000,-0.000 9.000,-0.000 9.000,-0.000 C9.000,-0.000 9.000,7.000 9.000,7.000 C9.000,7.000 16.000,7.000 16.000,7.000 C16.000,7.000 16.000,9.000 16.000,9.000 Z" id="path-1" class="cls-2" fill-rule="evenodd"/>
</svg>
