<svg xmlns="http://www.w3.org/2000/svg" xmlns:xlink="http://www.w3.org/1999/xlink" preserveAspectRatio="xMidYMid" width="16" height="16" viewBox="0 0 16 16">
  <path d="M8.000,16.000 C3.582,16.000 0.000,12.418 0.000,8.000 C0.000,3.582 3.582,-0.000 8.000,-0.000 C12.418,-0.000 16.000,3.582 16.000,8.000 C16.000,12.418 12.418,16.000 8.000,16.000 ZM8.000,2.000 C4.686,2.000 2.000,4.686 2.000,8.000 C2.000,11.314 4.686,14.000 8.000,14.000 C11.314,14.000 14.000,11.314 14.000,8.000 C14.000,4.686 11.314,2.000 8.000,2.000 ZM10.941,11.607 C10.941,11.607 10.765,11.709 10.765,11.709 C10.765,11.709 10.257,12.018 10.257,12.018 C10.257,12.018 9.957,12.237 9.957,12.237 C9.735,12.342 9.502,12.426 9.262,12.498 C9.262,12.498 9.262,12.203 9.262,12.203 C9.262,12.203 9.177,11.524 9.177,11.524 C9.177,11.524 9.134,11.133 9.071,11.030 C9.007,10.927 8.859,10.783 8.711,10.721 C8.563,10.659 8.457,10.659 8.372,10.556 C8.287,10.453 8.224,10.268 8.118,10.103 C8.012,9.938 7.885,9.774 7.885,9.691 C7.885,9.609 7.885,8.765 7.885,8.765 C7.885,8.765 7.991,7.982 7.991,7.982 C7.991,7.982 8.224,7.817 8.224,7.817 C8.224,7.817 8.499,7.509 8.499,7.509 C8.499,7.509 8.690,7.447 8.690,7.447 C8.690,7.447 9.346,7.570 9.346,7.570 C9.346,7.570 9.812,7.570 9.812,7.570 C9.812,7.570 10.003,7.962 10.003,7.962 C10.003,7.962 10.447,8.312 10.447,8.312 C10.447,8.312 10.723,8.744 10.723,8.744 C10.723,8.744 11.082,8.868 11.082,8.868 C11.082,8.868 11.485,8.868 11.485,8.868 C11.485,8.868 11.760,9.197 11.760,9.197 C11.760,9.197 11.929,9.547 11.929,9.547 C11.929,9.547 11.993,9.794 11.993,9.794 C11.993,9.794 11.993,10.206 11.993,10.206 C11.993,10.206 11.950,10.449 11.950,10.449 C11.680,10.890 11.340,11.277 10.941,11.607 ZM9.304,4.502 C9.304,4.502 8.838,4.749 8.838,4.749 C8.838,4.749 8.669,5.223 8.669,5.223 C8.669,5.223 8.393,5.470 8.393,5.470 C8.393,5.470 7.483,5.470 7.483,5.470 C7.483,5.470 7.059,5.635 7.059,5.635 C7.059,5.635 7.038,5.964 7.038,5.964 C7.038,5.964 6.869,6.232 6.869,6.232 C6.869,6.232 6.826,6.520 6.826,6.520 C6.826,6.520 6.911,6.767 6.911,6.767 C6.911,6.767 7.017,7.014 7.017,7.014 C7.017,7.014 7.271,7.303 7.017,7.509 C7.017,7.509 6.699,7.509 6.636,7.406 C6.572,7.303 6.106,7.014 6.022,6.932 C5.937,6.850 5.662,6.767 5.662,6.767 C5.662,6.767 5.323,6.644 5.323,6.644 C5.323,6.644 5.005,6.623 5.005,6.623 C5.005,6.623 5.027,6.191 5.027,6.191 C5.027,6.191 5.005,5.820 5.005,5.820 C5.005,5.820 4.878,5.552 4.878,5.552 C4.878,5.552 4.518,5.285 4.518,5.285 C4.518,5.285 4.497,4.996 4.497,4.996 C4.497,4.996 4.541,4.836 4.541,4.836 C5.399,4.007 6.580,3.493 7.885,3.493 C8.621,3.493 9.310,3.670 9.932,3.961 C9.932,3.961 9.918,4.070 9.918,4.070 C9.918,4.070 9.304,4.502 9.304,4.502 Z" id="path-1" class="cls-2" fill-rule="evenodd"/>
</svg>
