<svg xmlns="http://www.w3.org/2000/svg" xmlns:xlink="http://www.w3.org/1999/xlink" preserveAspectRatio="xMidYMid" width="15" height="13" viewBox="0 0 15 13">
  <path d="M14.996,10.922 C14.996,10.922 13.853,13.013 13.853,13.013 C13.853,13.013 7.121,6.500 7.121,6.500 C7.121,6.500 13.853,-0.013 13.853,-0.013 C13.853,-0.013 14.996,2.078 14.996,2.078 C14.996,2.078 10.703,6.500 10.703,6.500 C10.703,6.500 14.996,10.922 14.996,10.922 ZM7.862,10.922 C7.862,10.922 6.720,13.013 6.720,13.013 C6.720,13.013 -0.013,6.500 -0.013,6.500 C-0.013,6.500 6.720,-0.013 6.720,-0.013 C6.720,-0.013 7.862,2.078 7.862,2.078 C7.862,2.078 3.569,6.500 3.569,6.500 C3.569,6.500 7.862,10.922 7.862,10.922 Z" id="path-1" class="cls-2" fill-rule="evenodd"/>
</svg>
