<svg xmlns="http://www.w3.org/2000/svg" xmlns:xlink="http://www.w3.org/1999/xlink" preserveAspectRatio="xMidYMid" width="16" height="16" viewBox="0 0 16 16">
  <path d="M3.069,12.000 C3.069,12.000 3.000,12.000 3.000,12.000 C3.000,12.000 3.000,16.000 3.000,16.000 C3.000,16.000 7.500,13.000 7.500,13.000 C7.500,13.000 9.500,13.000 9.500,13.000 C13.090,13.000 16.000,10.090 16.000,6.500 C16.000,2.910 13.090,0.000 9.500,0.000 C9.500,0.000 6.500,0.000 6.500,0.000 C2.910,0.000 -0.000,2.910 -0.000,6.500 C-0.000,8.826 1.232,10.851 3.069,12.000 ZM6.500,2.000 C6.500,2.000 9.500,2.000 9.500,2.000 C11.985,2.000 14.000,4.015 14.000,6.500 C14.000,8.985 11.985,11.000 9.500,11.000 C9.500,11.000 7.500,11.000 7.500,11.000 C7.500,11.000 5.000,12.500 5.000,12.500 C5.000,12.500 5.000,11.000 5.000,11.000 C5.000,11.000 5.000,10.725 5.000,10.725 C3.256,10.105 2.000,8.457 2.000,6.500 C2.000,4.015 4.015,2.000 6.500,2.000 Z" id="path-1" class="cls-2" fill-rule="evenodd"/>
</svg>
