<svg xmlns="http://www.w3.org/2000/svg" xmlns:xlink="http://www.w3.org/1999/xlink" preserveAspectRatio="xMidYMid" width="15" height="13" viewBox="0 0 15 13">
  <path d="M8.280,13.013 C8.280,13.013 7.138,10.922 7.138,10.922 C7.138,10.922 11.431,6.500 11.431,6.500 C11.431,6.500 7.138,2.078 7.138,2.078 C7.138,2.078 8.280,-0.013 8.280,-0.013 C8.280,-0.013 15.013,6.500 15.013,6.500 C15.013,6.500 8.280,13.013 8.280,13.013 ZM1.147,13.013 C1.147,13.013 0.004,10.922 0.004,10.922 C0.004,10.922 4.297,6.500 4.297,6.500 C4.297,6.500 0.004,2.078 0.004,2.078 C0.004,2.078 1.147,-0.013 1.147,-0.013 C1.147,-0.013 7.879,6.500 7.879,6.500 C7.879,6.500 1.147,13.013 1.147,13.013 Z" id="path-1" class="cls-2" fill-rule="evenodd"/>
</svg>
