<svg xmlns="http://www.w3.org/2000/svg" xmlns:xlink="http://www.w3.org/1999/xlink" preserveAspectRatio="xMidYMid" width="30" height="30" viewBox="7 7 15 15">
  <g id="icon-panicbutton">
    <path d="M21.000,18.706 C21.000,18.706 21.000,19.529 21.000,19.529 C21.000,19.984 20.636,20.353 20.187,20.353 C20.187,20.353 19.375,20.353 19.375,20.353 C19.375,20.353 19.375,20.353 19.375,20.353 C19.375,20.353 18.563,20.353 18.563,20.353 C18.563,20.353 18.563,22.000 18.563,22.000 C18.563,22.000 14.906,20.353 14.906,20.353 C14.906,20.353 9.625,20.353 9.625,20.353 C9.625,20.353 9.625,20.353 9.625,20.353 C9.625,20.353 8.812,20.353 8.812,20.353 C8.364,20.353 8.000,19.984 8.000,19.529 C8.000,19.529 8.000,8.824 8.000,8.824 C8.000,8.369 8.364,8.000 8.812,8.000 C8.812,8.000 10.437,8.000 10.437,8.000 C10.437,8.000 12.063,8.000 12.063,8.000 C12.063,8.000 12.063,8.000 12.063,8.000 C12.063,8.000 18.562,8.000 18.562,8.000 C18.562,8.000 18.563,8.000 18.563,8.000 C18.563,8.000 20.187,8.000 20.187,8.000 C20.636,8.000 21.000,8.369 21.000,8.824 C21.000,8.824 21.000,9.647 21.000,9.647 C21.000,9.647 21.000,9.647 21.000,9.647 C21.000,9.647 21.000,18.706 21.000,18.706 C21.000,18.706 21.000,18.706 21.000,18.706 ZM19.375,9.647 C19.375,9.647 17.750,9.647 17.750,9.647 C17.750,9.647 11.250,9.647 11.250,9.647 C11.250,9.647 9.625,9.647 9.625,9.647 C9.625,9.647 9.625,16.235 9.625,16.235 C9.625,16.235 9.625,18.706 9.625,18.706 C9.625,18.706 11.250,18.706 11.250,18.706 C11.250,18.706 14.906,18.706 14.906,18.706 C14.906,18.706 16.937,19.529 16.937,19.529 C16.937,19.529 16.938,18.706 16.938,18.706 C16.938,18.706 17.750,18.706 17.750,18.706 C17.750,18.706 19.375,18.706 19.375,18.706 C19.375,18.706 19.375,9.647 19.375,9.647 ZM13.688,17.059 C13.688,17.059 13.688,17.059 13.688,17.059 C13.688,17.059 13.688,15.412 13.688,15.412 C13.688,15.412 15.312,15.412 15.312,15.412 C15.312,15.412 15.312,17.059 15.312,17.059 C15.312,17.059 13.688,17.059 13.688,17.059 C13.688,17.059 13.688,17.059 13.688,17.059 ZM13.688,11.294 C13.688,11.294 15.312,11.294 15.312,11.294 C15.312,11.294 15.312,14.588 15.312,14.588 C15.312,14.588 13.688,14.588 13.688,14.588 C13.688,14.588 13.688,11.294 13.688,11.294 Z" id="path-1" class="cls-4" fill-rule="evenodd"/>
  </g>
</svg>
