<svg xmlns="http://www.w3.org/2000/svg" xmlns:xlink="http://www.w3.org/1999/xlink" preserveAspectRatio="xMidYMid" width="18" height="14" viewBox="0 0 18 14">
  <path d="M14.750,8.000 C14.750,8.000 11.000,14.000 11.000,14.000 C11.000,14.000 9.000,14.000 9.000,14.000 C9.000,14.000 6.600,2.800 6.600,2.800 C6.600,2.800 5.000,6.000 5.000,6.000 C5.000,6.000 5.000,6.000 5.000,6.000 C5.000,6.000 4.000,8.000 4.000,8.000 C4.000,8.000 2.000,8.000 2.000,8.000 C2.000,8.000 -0.000,8.000 -0.000,8.000 C-0.000,8.000 -0.000,6.000 -0.000,6.000 C-0.000,6.000 3.028,6.000 3.028,6.000 C3.028,6.000 6.033,0.153 6.033,0.153 C6.033,0.153 6.000,-0.000 6.000,-0.000 C6.000,-0.000 8.000,-0.000 8.000,-0.000 C8.000,-0.000 10.489,11.617 10.489,11.617 C10.489,11.617 14.000,6.000 14.000,6.000 C14.000,6.000 16.000,6.000 16.000,6.000 C16.000,6.000 18.000,6.000 18.000,6.000 C18.000,6.000 18.000,8.000 18.000,8.000 C18.000,8.000 14.750,8.000 14.750,8.000 Z" id="path-1" class="cls-2" fill-rule="evenodd"/>
</svg>
