<?xml version="1.0" encoding="utf-8"?>
<!-- Generator: Adobe Illustrator 18.1.1, SVG Export Plug-In . SVG Version: 6.00 Build 0)  -->
<svg version="1.1" id="Layer_1" xmlns="http://www.w3.org/2000/svg" xmlns:xlink="http://www.w3.org/1999/xlink" x="0px" y="0px"
	 viewBox="0 0 30 29.9" enable-background="new 0 0 30 29.9" xml:space="preserve">
<g>
	<path d="M29.6,23.8c-2.5-0.6-3.6-1.6-3.6-3v-7c0-4.7-2.7-8.7-6.8-10.4C18.7,1.4,17,0,15,0c-2,0-3.7,1.4-4.2,3.3
		C6.7,5,4,9.1,4,13.7v7c0,1.4-1.2,2.4-3.6,3C0.1,23.8,0,24,0,24.3c0,0.3,0.2,0.4,0.5,0.4h29c0.3,0,0.5-0.2,0.5-0.4
		C30,24,29.9,23.8,29.6,23.8z"/>
	<path d="M18,25.9h-6c-0.3,0-0.5,0.2-0.5,0.5c0,2.4,1.1,3.5,3.5,3.5s3.5-1.1,3.5-3.5C18.5,26.1,18.3,25.9,18,25.9z"
		/>
</g>
</svg>
