<?xml version="1.0" encoding="utf-8"?>
<!-- Generator: Adobe Illustrator 18.1.1, SVG Export Plug-In . SVG Version: 6.00 Build 0)  -->
<svg version="1.1" id="Layer_1" xmlns="http://www.w3.org/2000/svg" xmlns:xlink="http://www.w3.org/1999/xlink" x="0px" y="0px"
	 viewBox="0 0 30 30" enable-background="new 0 0 30 30" xml:space="preserve">
<path d="M28.7,24.2c-0.9-1.8-3.8-2.9-7.9-4.3c-0.6-0.2-1.2-0.4-1.8-0.7v-3.2c0.4-0.4,1.4-1.8,1.5-3.8
	c0.3-0.2,0.5-0.6,0.6-1.2c0.2-0.9,0.1-1.9-0.5-2.5c0-0.1,0.1-0.2,0.1-0.4c0.5-1.2,1.4-3.5,1-5.2c-0.4-2-3.3-2.9-5.9-2.9
	c-1.9,0-4.3,0.5-5,1.8c-0.7,0.1-1.3,0.4-1.7,0.9c-1.1,1.4-0.3,4,0.1,5.4c0,0.1,0.1,0.2,0.1,0.3C8.7,9,8.6,10,8.8,10.9
	c0.1,0.6,0.4,1,0.6,1.2c0.1,2,1.1,3.2,1.5,3.6v3.4c-0.6,0.2-1.2,0.5-1.8,0.7c-4.1,1.5-7,2.6-7.9,4.3C0,26.8,0,29.4,0,29.5
	C0,29.8,0.2,30,0.5,30h29c0.3,0,0.5-0.2,0.5-0.5C30,29.4,30,26.8,28.7,24.2z"/>
</svg>
