<svg xmlns="http://www.w3.org/2000/svg" xmlns:xlink="http://www.w3.org/1999/xlink" preserveAspectRatio="xMidYMid" width="15" height="15" viewBox="0 0 15 15">
  <path d="M13.353,6.632 C13.401,6.875 13.426,7.164 13.426,7.500 C13.426,7.836 13.401,8.125 13.353,8.368 C13.353,8.368 14.871,9.618 14.871,9.618 C14.993,9.699 15.023,9.809 14.962,9.948 C14.657,10.839 14.158,11.661 13.463,12.413 C13.365,12.529 13.249,12.558 13.115,12.500 C13.115,12.500 11.213,11.875 11.213,11.875 C10.725,12.246 10.201,12.535 9.640,12.743 C9.640,12.743 9.256,14.618 9.256,14.618 C9.231,14.757 9.146,14.838 9.000,14.861 C8.475,14.954 7.976,15.000 7.500,15.000 C7.024,15.000 6.524,14.954 6.000,14.861 C5.854,14.838 5.768,14.757 5.744,14.618 C5.744,14.618 5.360,12.743 5.360,12.743 C4.763,12.523 4.238,12.234 3.787,11.875 C3.787,11.875 1.885,12.500 1.885,12.500 C1.751,12.558 1.635,12.529 1.537,12.413 C0.842,11.661 0.342,10.839 0.038,9.948 C-0.023,9.809 0.007,9.699 0.129,9.618 C0.129,9.618 1.647,8.368 1.647,8.368 C1.598,8.125 1.574,7.836 1.574,7.500 C1.574,7.164 1.598,6.875 1.647,6.632 C1.647,6.632 0.129,5.382 0.129,5.382 C0.007,5.301 -0.023,5.191 0.038,5.052 C0.342,4.161 0.842,3.339 1.537,2.587 C1.635,2.471 1.751,2.442 1.885,2.500 C1.885,2.500 3.787,3.125 3.787,3.125 C4.238,2.766 4.763,2.477 5.360,2.257 C5.360,2.257 5.744,0.382 5.744,0.382 C5.768,0.243 5.854,0.162 6.000,0.139 C7.000,-0.058 8.000,-0.058 9.000,0.139 C9.146,0.162 9.231,0.243 9.256,0.382 C9.256,0.382 9.640,2.257 9.640,2.257 C10.201,2.465 10.725,2.755 11.213,3.125 C11.213,3.125 13.115,2.500 13.115,2.500 C13.249,2.442 13.365,2.471 13.463,2.587 C14.158,3.339 14.657,4.161 14.962,5.052 C15.023,5.191 14.993,5.301 14.871,5.382 C14.871,5.382 13.353,6.632 13.353,6.632 ZM7.500,3.750 C5.429,3.750 3.750,5.429 3.750,7.500 C3.750,9.571 5.429,11.250 7.500,11.250 C9.571,11.250 11.250,9.571 11.250,7.500 C11.250,5.429 9.571,3.750 7.500,3.750 Z" id="path-1" class="cls-2" fill-rule="evenodd"/>
</svg>
