<?xml version="1.0" encoding="utf-8"?>
<!-- Generator: Adobe Illustrator 18.1.1, SVG Export Plug-In . SVG Version: 6.00 Build 0)  -->
<svg version="1.1" id="Layer_1" xmlns="http://www.w3.org/2000/svg" xmlns:xlink="http://www.w3.org/1999/xlink" x="0px" y="0px"
	 viewBox="0 0 60 43" enable-background="new 0 0 60 43" xml:space="preserve">
<g id="_x2E_svg_2_">
	<polygon points="60,41.7 60,1.4 39.5,22 	"/>
	<polygon points="0,1.4 0,41.7 20.5,22 	"/>
	<path d="M1.4,0l21,21.1c0.1,0.1,0.5,0.4,0.5,0.5l5.9,6c0.6,0.6,1.7,0.6,2.3,0l5.9-5.9c0-0.1,0.4-0.5,0.5-0.5L58.6,0
		H1.4z"/>
	<path d="M38.1,23.5L32.6,29c-0.7,0.7-1.7,1-2.6,1c-0.9,0-1.8-0.3-2.5-1l-5.5-5.5L1.6,43h56.9L38.1,23.5z"/>
</g>
<g>
</g>
<g>
</g>
<g>
</g>
<g>
</g>
<g>
</g>
<g>
</g>
<g>
</g>
<g>
</g>
<g>
</g>
<g>
</g>
<g>
</g>
<g>
</g>
<g>
</g>
<g>
</g>
<g>
</g>
</svg>
