<svg xmlns="http://www.w3.org/2000/svg" xmlns:xlink="http://www.w3.org/1999/xlink" preserveAspectRatio="xMidYMid" width="16" height="16" viewBox="0 0 16 16">
<!--   <defs>
    <style>

      .cls-2 {
        fill: #ffffff;
        filter: url(#color-overlay-1);
      }
    </style>

    <filter id="color-overlay-1" filterUnits="userSpaceOnUse">
      <feFlood flood-color="#4ac4ff" flood-opacity="1"/>
      <feComposite operator="in" in2="SourceGraphic"/>
      <feBlend mode="normal" in2="SourceGraphic" result="colorOverlay"/>
    </filter>
  </defs> -->
  <path d="M15.000,16.000 C15.000,16.000 10.000,16.000 10.000,16.000 C9.448,16.000 9.000,15.552 9.000,15.000 C9.000,15.000 9.000,10.000 9.000,10.000 C9.000,9.448 9.448,9.000 10.000,9.000 C10.000,9.000 15.000,9.000 15.000,9.000 C15.552,9.000 16.000,9.448 16.000,10.000 C16.000,10.000 16.000,15.000 16.000,15.000 C16.000,15.552 15.552,16.000 15.000,16.000 ZM14.000,11.000 C14.000,11.000 11.000,11.000 11.000,11.000 C11.000,11.000 11.000,14.000 11.000,14.000 C11.000,14.000 14.000,14.000 14.000,14.000 C14.000,14.000 14.000,11.000 14.000,11.000 ZM15.000,7.000 C15.000,7.000 10.000,7.000 10.000,7.000 C9.448,7.000 9.000,6.552 9.000,6.000 C9.000,6.000 9.000,1.000 9.000,1.000 C9.000,0.448 9.448,-0.000 10.000,-0.000 C10.000,-0.000 15.000,-0.000 15.000,-0.000 C15.552,-0.000 16.000,0.448 16.000,1.000 C16.000,1.000 16.000,6.000 16.000,6.000 C16.000,6.552 15.552,7.000 15.000,7.000 ZM14.000,2.000 C14.000,2.000 11.000,2.000 11.000,2.000 C11.000,2.000 11.000,5.000 11.000,5.000 C11.000,5.000 14.000,5.000 14.000,5.000 C14.000,5.000 14.000,2.000 14.000,2.000 ZM6.000,16.000 C6.000,16.000 1.000,16.000 1.000,16.000 C0.448,16.000 -0.000,15.552 -0.000,15.000 C-0.000,15.000 -0.000,10.000 -0.000,10.000 C-0.000,9.448 0.448,9.000 1.000,9.000 C1.000,9.000 6.000,9.000 6.000,9.000 C6.552,9.000 7.000,9.448 7.000,10.000 C7.000,10.000 7.000,15.000 7.000,15.000 C7.000,15.552 6.552,16.000 6.000,16.000 ZM5.000,11.000 C5.000,11.000 2.000,11.000 2.000,11.000 C2.000,11.000 2.000,14.000 2.000,14.000 C2.000,14.000 5.000,14.000 5.000,14.000 C5.000,14.000 5.000,11.000 5.000,11.000 ZM6.000,7.000 C6.000,7.000 1.000,7.000 1.000,7.000 C0.448,7.000 -0.000,6.552 -0.000,6.000 C-0.000,6.000 -0.000,1.000 -0.000,1.000 C-0.000,0.448 0.448,-0.000 1.000,-0.000 C1.000,-0.000 6.000,-0.000 6.000,-0.000 C6.552,-0.000 7.000,0.448 7.000,1.000 C7.000,1.000 7.000,6.000 7.000,6.000 C7.000,6.552 6.552,7.000 6.000,7.000 ZM5.000,2.000 C5.000,2.000 2.000,2.000 2.000,2.000 C2.000,2.000 2.000,5.000 2.000,5.000 C2.000,5.000 5.000,5.000 5.000,5.000 C5.000,5.000 5.000,2.000 5.000,2.000 Z" id="path-1" class="cls-2" fill-rule="evenodd"/>
</svg>
