<?xml version="1.0" encoding="utf-8"?>
<!-- Generator: Adobe Illustrator 18.1.1, SVG Export Plug-In . SVG Version: 6.00 Build 0)  -->
<svg version="1.1" id="Layer_1" xmlns="http://www.w3.org/2000/svg" xmlns:xlink="http://www.w3.org/1999/xlink" x="0px" y="0px"
	 viewBox="0 0 72.4 71.3" enable-background="new 0 0 72.4 71.3" xml:space="preserve">
<path id="_x2E_svg" d="M50.9,8.7C39.2-2.9,20.4-2.9,8.7,8.7s-11.5,30.5,0,42.2c11,11,28.4,11.5,40.1,1.9
	c0.1,0.2,0.2,0.4,0.5,0.6l16.9,16.9c1.4,1.4,3.5,1.4,4.8,0l0.2-0.2c1.4-1.4,1.4-3.5,0-4.8L54.5,48.1c-0.2-0.2-0.5-0.4-0.7-0.5
	C62.5,35.8,61.5,19.3,50.9,8.7z M45.6,45.5c-8.6,8.6-22.6,8.6-31.2,0s-8.6-22.6,0-31.2s22.6-8.6,31.2,0S54.3,37,45.6,45.5z"/>
</svg>
